<mxfile host="app.diagrams.net" modified="2024-01-08T17:47:07.711Z" agent="Mozilla/5.0 (Windows NT 10.0; Win64; x64) AppleWebKit/537.36 (KHTML, like Gecko) Chrome/120.0.0.0 Safari/537.36" etag="scYuKjNJyratZbvU-ocS" version="22.1.17" type="device">
  <diagram name="Page-1" id="jQzSYVdm3V0Cscp-FkVT">
    <mxGraphModel dx="2345" dy="1793" grid="1" gridSize="10" guides="1" tooltips="1" connect="1" arrows="1" fold="1" page="1" pageScale="1" pageWidth="827" pageHeight="1169" math="0" shadow="0">
      <root>
        <mxCell id="0" />
        <mxCell id="1" parent="0" />
        <mxCell id="8cLG2gRyjd2fhrXtt0pE-1" value="Broker" style="swimlane;fontStyle=0;childLayout=stackLayout;horizontal=1;startSize=26;fillColor=none;horizontalStack=0;resizeParent=1;resizeParentMax=0;resizeLast=0;collapsible=1;marginBottom=0;whiteSpace=wrap;html=1;" vertex="1" parent="1">
          <mxGeometry x="290" y="-80" width="280" height="140" as="geometry" />
        </mxCell>
        <mxCell id="8cLG2gRyjd2fhrXtt0pE-2" value="&amp;nbsp;" style="text;strokeColor=none;fillColor=none;align=left;verticalAlign=top;spacingLeft=4;spacingRight=4;overflow=hidden;rotatable=0;points=[[0,0.5],[1,0.5]];portConstraint=eastwest;whiteSpace=wrap;html=1;" vertex="1" parent="8cLG2gRyjd2fhrXtt0pE-1">
          <mxGeometry y="26" width="280" height="26" as="geometry" />
        </mxCell>
        <mxCell id="8cLG2gRyjd2fhrXtt0pE-3" value="New()" style="text;strokeColor=none;fillColor=none;align=left;verticalAlign=top;spacingLeft=4;spacingRight=4;overflow=hidden;rotatable=0;points=[[0,0.5],[1,0.5]];portConstraint=eastwest;whiteSpace=wrap;html=1;" vertex="1" parent="8cLG2gRyjd2fhrXtt0pE-1">
          <mxGeometry y="52" width="280" height="26" as="geometry" />
        </mxCell>
        <mxCell id="8cLG2gRyjd2fhrXtt0pE-4" value="GetAllRooms() : ResultSet&lt;br style=&quot;border-color: var(--border-color);&quot;&gt;&lt;br style=&quot;border-color: var(--border-color);&quot;&gt;MakeReservation(rdc :&amp;nbsp;&amp;nbsp;ReservationDataConvert)" style="text;strokeColor=none;fillColor=none;align=left;verticalAlign=top;spacingLeft=4;spacingRight=4;overflow=hidden;rotatable=0;points=[[0,0.5],[1,0.5]];portConstraint=eastwest;whiteSpace=wrap;html=1;" vertex="1" parent="8cLG2gRyjd2fhrXtt0pE-1">
          <mxGeometry y="78" width="280" height="62" as="geometry" />
        </mxCell>
        <mxCell id="8cLG2gRyjd2fhrXtt0pE-5" value="" style="endArrow=none;html=1;rounded=0;entryX=1;entryY=0.955;entryDx=0;entryDy=0;entryPerimeter=0;exitX=0.007;exitY=-0.066;exitDx=0;exitDy=0;exitPerimeter=0;" edge="1" parent="8cLG2gRyjd2fhrXtt0pE-1" source="8cLG2gRyjd2fhrXtt0pE-3" target="8cLG2gRyjd2fhrXtt0pE-2">
          <mxGeometry width="50" height="50" relative="1" as="geometry">
            <mxPoint x="-290" y="180" as="sourcePoint" />
            <mxPoint x="-240" y="130" as="targetPoint" />
          </mxGeometry>
        </mxCell>
        <mxCell id="8cLG2gRyjd2fhrXtt0pE-6" value="RoomsAndReservationController" style="swimlane;fontStyle=0;childLayout=stackLayout;horizontal=1;startSize=26;fillColor=none;horizontalStack=0;resizeParent=1;resizeParentMax=0;resizeLast=0;collapsible=1;marginBottom=0;whiteSpace=wrap;html=1;" vertex="1" parent="1">
          <mxGeometry x="-90" y="-80" width="220" height="140" as="geometry" />
        </mxCell>
        <mxCell id="8cLG2gRyjd2fhrXtt0pE-7" value="RSRooms : ResultSet" style="text;strokeColor=none;fillColor=none;align=left;verticalAlign=top;spacingLeft=4;spacingRight=4;overflow=hidden;rotatable=0;points=[[0,0.5],[1,0.5]];portConstraint=eastwest;whiteSpace=wrap;html=1;" vertex="1" parent="8cLG2gRyjd2fhrXtt0pE-6">
          <mxGeometry y="26" width="220" height="26" as="geometry" />
        </mxCell>
        <mxCell id="8cLG2gRyjd2fhrXtt0pE-8" value="New()" style="text;strokeColor=none;fillColor=none;align=left;verticalAlign=top;spacingLeft=4;spacingRight=4;overflow=hidden;rotatable=0;points=[[0,0.5],[1,0.5]];portConstraint=eastwest;whiteSpace=wrap;html=1;" vertex="1" parent="8cLG2gRyjd2fhrXtt0pE-6">
          <mxGeometry y="52" width="220" height="26" as="geometry" />
        </mxCell>
        <mxCell id="8cLG2gRyjd2fhrXtt0pE-9" value="GetAllRooms() : ResultSet&lt;br&gt;&lt;br&gt;MakeReservation()" style="text;strokeColor=none;fillColor=none;align=left;verticalAlign=top;spacingLeft=4;spacingRight=4;overflow=hidden;rotatable=0;points=[[0,0.5],[1,0.5]];portConstraint=eastwest;whiteSpace=wrap;html=1;" vertex="1" parent="8cLG2gRyjd2fhrXtt0pE-6">
          <mxGeometry y="78" width="220" height="62" as="geometry" />
        </mxCell>
        <mxCell id="8cLG2gRyjd2fhrXtt0pE-10" value="" style="endArrow=none;html=1;rounded=0;entryX=-0.005;entryY=0.912;entryDx=0;entryDy=0;entryPerimeter=0;exitX=0.996;exitY=0.891;exitDx=0;exitDy=0;exitPerimeter=0;" edge="1" parent="8cLG2gRyjd2fhrXtt0pE-6" source="8cLG2gRyjd2fhrXtt0pE-7" target="8cLG2gRyjd2fhrXtt0pE-7">
          <mxGeometry width="50" height="50" relative="1" as="geometry">
            <mxPoint x="-100" y="60" as="sourcePoint" />
            <mxPoint x="-239" y="59" as="targetPoint" />
          </mxGeometry>
        </mxCell>
        <mxCell id="8cLG2gRyjd2fhrXtt0pE-11" value="FrmOurRooms" style="swimlane;fontStyle=0;childLayout=stackLayout;horizontal=1;startSize=26;fillColor=none;horizontalStack=0;resizeParent=1;resizeParentMax=0;resizeLast=0;collapsible=1;marginBottom=0;whiteSpace=wrap;html=1;" vertex="1" parent="1">
          <mxGeometry x="-450" y="-80" width="160" height="120" as="geometry" />
        </mxCell>
        <mxCell id="8cLG2gRyjd2fhrXtt0pE-12" value="RSRooms : ResultSet" style="text;strokeColor=none;fillColor=none;align=left;verticalAlign=top;spacingLeft=4;spacingRight=4;overflow=hidden;rotatable=0;points=[[0,0.5],[1,0.5]];portConstraint=eastwest;whiteSpace=wrap;html=1;" vertex="1" parent="8cLG2gRyjd2fhrXtt0pE-11">
          <mxGeometry y="26" width="160" height="26" as="geometry" />
        </mxCell>
        <mxCell id="8cLG2gRyjd2fhrXtt0pE-13" value="Start()" style="text;strokeColor=none;fillColor=none;align=left;verticalAlign=top;spacingLeft=4;spacingRight=4;overflow=hidden;rotatable=0;points=[[0,0.5],[1,0.5]];portConstraint=eastwest;whiteSpace=wrap;html=1;" vertex="1" parent="8cLG2gRyjd2fhrXtt0pE-11">
          <mxGeometry y="52" width="160" height="26" as="geometry" />
        </mxCell>
        <mxCell id="8cLG2gRyjd2fhrXtt0pE-14" value="handleSubmit()" style="text;strokeColor=none;fillColor=none;align=left;verticalAlign=top;spacingLeft=4;spacingRight=4;overflow=hidden;rotatable=0;points=[[0,0.5],[1,0.5]];portConstraint=eastwest;whiteSpace=wrap;html=1;" vertex="1" parent="8cLG2gRyjd2fhrXtt0pE-11">
          <mxGeometry y="78" width="160" height="42" as="geometry" />
        </mxCell>
        <mxCell id="8cLG2gRyjd2fhrXtt0pE-15" value="" style="endArrow=none;html=1;rounded=0;entryX=0.004;entryY=0.891;entryDx=0;entryDy=0;entryPerimeter=0;exitX=1.01;exitY=0.88;exitDx=0;exitDy=0;exitPerimeter=0;" edge="1" parent="8cLG2gRyjd2fhrXtt0pE-11" source="8cLG2gRyjd2fhrXtt0pE-12" target="8cLG2gRyjd2fhrXtt0pE-12">
          <mxGeometry width="50" height="50" relative="1" as="geometry">
            <mxPoint x="150" y="49" as="sourcePoint" />
            <mxPoint x="380" y="210" as="targetPoint" />
          </mxGeometry>
        </mxCell>
        <mxCell id="8cLG2gRyjd2fhrXtt0pE-16" value="" style="shape=ellipse;fillColor=#000000;strokeColor=none;html=1;sketch=0;" vertex="1" parent="1">
          <mxGeometry x="-100" y="-33" width="10" height="10" as="geometry" />
        </mxCell>
        <mxCell id="8cLG2gRyjd2fhrXtt0pE-17" value="" style="endArrow=none;html=1;rounded=0;entryX=0;entryY=0.5;entryDx=0;entryDy=0;exitX=1.001;exitY=0.061;exitDx=0;exitDy=0;exitPerimeter=0;" edge="1" parent="1" source="8cLG2gRyjd2fhrXtt0pE-13" target="8cLG2gRyjd2fhrXtt0pE-16">
          <mxGeometry width="50" height="50" relative="1" as="geometry">
            <mxPoint x="-200" y="-30" as="sourcePoint" />
            <mxPoint x="40" y="130" as="targetPoint" />
          </mxGeometry>
        </mxCell>
        <mxCell id="8cLG2gRyjd2fhrXtt0pE-18" value="" style="shape=ellipse;fillColor=#000000;strokeColor=none;html=1;sketch=0;" vertex="1" parent="1">
          <mxGeometry x="280" y="-28" width="10" height="10" as="geometry" />
        </mxCell>
        <mxCell id="8cLG2gRyjd2fhrXtt0pE-19" value="" style="endArrow=none;html=1;rounded=0;exitX=1.004;exitY=0.262;exitDx=0;exitDy=0;exitPerimeter=0;entryX=0;entryY=0.5;entryDx=0;entryDy=0;" edge="1" parent="1" source="8cLG2gRyjd2fhrXtt0pE-8" target="8cLG2gRyjd2fhrXtt0pE-18">
          <mxGeometry width="50" height="50" relative="1" as="geometry">
            <mxPoint x="426.8800000000001" y="-21.994000000000028" as="sourcePoint" />
            <mxPoint x="207" y="25" as="targetPoint" />
          </mxGeometry>
        </mxCell>
        <mxCell id="8cLG2gRyjd2fhrXtt0pE-20" value="b" style="text;html=1;align=center;verticalAlign=middle;resizable=0;points=[];autosize=1;strokeColor=none;fillColor=none;" vertex="1" parent="1">
          <mxGeometry x="270" y="-23" width="30" height="30" as="geometry" />
        </mxCell>
        <mxCell id="8cLG2gRyjd2fhrXtt0pE-21" value="k1" style="text;html=1;align=center;verticalAlign=middle;resizable=0;points=[];autosize=1;strokeColor=none;fillColor=none;" vertex="1" parent="1">
          <mxGeometry x="-117" y="-29" width="40" height="30" as="geometry" />
        </mxCell>
        <mxCell id="8cLG2gRyjd2fhrXtt0pE-22" value="rdc" style="text;html=1;align=center;verticalAlign=middle;resizable=0;points=[];autosize=1;strokeColor=none;fillColor=none;" vertex="1" parent="1">
          <mxGeometry x="-67" y="109" width="40" height="30" as="geometry" />
        </mxCell>
        <mxCell id="8cLG2gRyjd2fhrXtt0pE-36" value="" style="shape=ellipse;fillColor=#000000;strokeColor=none;html=1;sketch=0;" vertex="1" parent="1">
          <mxGeometry x="-70" y="125" width="10" height="10" as="geometry" />
        </mxCell>
        <mxCell id="8cLG2gRyjd2fhrXtt0pE-37" value="" style="endArrow=none;html=1;rounded=0;entryX=0.5;entryY=0;entryDx=0;entryDy=0;" edge="1" parent="1" target="8cLG2gRyjd2fhrXtt0pE-36">
          <mxGeometry width="50" height="50" relative="1" as="geometry">
            <mxPoint x="-65" y="60" as="sourcePoint" />
            <mxPoint x="-59" y="100" as="targetPoint" />
          </mxGeometry>
        </mxCell>
        <mxCell id="8cLG2gRyjd2fhrXtt0pE-52" value="ResevationDataConvert" style="swimlane;fontStyle=1;align=center;verticalAlign=top;childLayout=stackLayout;horizontal=1;startSize=26;horizontalStack=0;resizeParent=1;resizeParentMax=0;resizeLast=0;collapsible=1;marginBottom=0;whiteSpace=wrap;html=1;" vertex="1" parent="1">
          <mxGeometry x="-180" y="135" width="230" height="364" as="geometry" />
        </mxCell>
        <mxCell id="8cLG2gRyjd2fhrXtt0pE-53" value="SelectedRoomID: int&lt;br&gt;&lt;br&gt;FirstName : string&lt;br&gt;&lt;br&gt;LastName : string&lt;br&gt;&lt;br&gt;DateFrom : datetime&lt;br style=&quot;border-color: var(--border-color);&quot;&gt;&lt;br style=&quot;border-color: var(--border-color);&quot;&gt;DateTO : datetime&lt;br&gt;&lt;br&gt;Emal : string&lt;br&gt;&lt;br&gt;GuestNumber : int&lt;br&gt;&lt;br&gt;DiscountCode : string&lt;br&gt;&lt;br&gt;Token: string&lt;br&gt;&lt;br&gt;PricePerNight : decimal" style="text;strokeColor=none;fillColor=none;align=left;verticalAlign=top;spacingLeft=4;spacingRight=4;overflow=hidden;rotatable=0;points=[[0,0.5],[1,0.5]];portConstraint=eastwest;whiteSpace=wrap;html=1;" vertex="1" parent="8cLG2gRyjd2fhrXtt0pE-52">
          <mxGeometry y="26" width="230" height="304" as="geometry" />
        </mxCell>
        <mxCell id="8cLG2gRyjd2fhrXtt0pE-54" value="" style="line;strokeWidth=1;fillColor=none;align=left;verticalAlign=middle;spacingTop=-1;spacingLeft=3;spacingRight=3;rotatable=0;labelPosition=right;points=[];portConstraint=eastwest;strokeColor=inherit;" vertex="1" parent="8cLG2gRyjd2fhrXtt0pE-52">
          <mxGeometry y="330" width="230" height="8" as="geometry" />
        </mxCell>
        <mxCell id="8cLG2gRyjd2fhrXtt0pE-55" value="New()" style="text;strokeColor=none;fillColor=none;align=left;verticalAlign=top;spacingLeft=4;spacingRight=4;overflow=hidden;rotatable=0;points=[[0,0.5],[1,0.5]];portConstraint=eastwest;whiteSpace=wrap;html=1;" vertex="1" parent="8cLG2gRyjd2fhrXtt0pE-52">
          <mxGeometry y="338" width="230" height="26" as="geometry" />
        </mxCell>
      </root>
    </mxGraphModel>
  </diagram>
</mxfile>
